<svg width="248" height="40" viewBox="0 0 248 40" fill="none" xmlns="http://www.w3.org/2000/svg">
<g clip-path="url(#clip0_717_664)">
<path fill-rule="evenodd" clip-rule="evenodd" d="M20.0001 10.7692C25.1283 10.7692 29.2308 14.8718 29.2308 20C29.2308 25.1282 25.1283 29.2308 20.0001 29.2308C14.8719 29.2308 10.7693 25.1282 10.7693 20C10.7693 14.8718 14.8719 10.7692 20.0001 10.7692Z" fill="#F17431"/>
<path d="M40.0001 17.7778C37.0941 17.265 36.2394 16.2393 34.8719 14.188C32.8206 9.05983 28.2052 5.12821 22.5642 4.2735V7.69231C27.5215 8.71795 31.4531 12.6496 32.4787 17.7778H34.0172C34.3591 17.7778 35.0428 17.9487 36.2394 17.9487C37.0941 17.7778 38.2907 17.7778 40.0001 17.7778Z" fill="#33B050"/>
<path d="M35.7266 22.0513H32.3078C31.4531 27.3504 27.1796 31.6239 21.7095 32.3077V35.7265H21.8804C21.8804 36.7521 21.8804 37.9487 21.8804 40C22.3932 37.2649 23.4189 36.2393 25.2992 35.0427C30.9402 32.9914 35.0428 28.0342 35.7266 22.0513Z" fill="#33B050"/>
<path d="M18.1197 4.2735C18.1197 3.24786 18.1197 1.88034 18.1197 0C17.6069 2.73504 16.4103 3.58974 14.359 5.1282C9.05988 7.17949 5.12826 11.7949 4.27356 17.6068H7.69236C8.718 12.3077 12.9915 8.37607 18.2907 7.69231V4.2735C18.2907 4.2735 18.2907 4.2735 18.1197 4.2735Z" fill="#33B050"/>
<path d="M7.52137 21.8803H2.05128C1.53846 21.8803 0.854701 21.8803 0 21.8803C2.73504 22.3932 3.58974 23.2479 4.95727 25.1282C6.83761 30.5983 11.6239 34.8718 17.6068 35.7265V32.3077C12.4786 31.2821 8.37607 27.1795 7.52137 21.8803Z" fill="#33B050"/>
<path d="M7.35039 21.5385H0.170898V22.0513H7.35039V21.5385Z" fill="#F17431"/>
<path d="M18.6324 0.170959H18.1196V7.35045H18.6324V0.170959Z" fill="#F17431"/>
<path d="M39.6584 17.6068H32.4789V18.1197H39.6584V17.6068Z" fill="#F17431"/>
<path d="M22.0513 32.4786H21.5385V39.6581H22.0513V32.4786Z" fill="#F17431"/>
<path d="M20.3419 19.8291C21.758 19.8291 22.906 18.6811 22.906 17.265C22.906 15.8489 21.758 14.7009 20.3419 14.7009C18.9258 14.7009 17.7778 15.8489 17.7778 17.265C17.7778 18.6811 18.9258 19.8291 20.3419 19.8291Z" fill="white"/>
<path fill-rule="evenodd" clip-rule="evenodd" d="M21.3676 24.6154V29.0598C21.7095 29.0598 21.8804 29.0598 22.2223 28.8889V25.1282C23.077 25.2992 24.9574 24.9573 25.4702 20.6838C25.2992 20.6838 20.342 21.8803 21.3676 24.6154Z" fill="white"/>
<path fill-rule="evenodd" clip-rule="evenodd" d="M14.8719 20.6838C15.3848 24.9573 17.2651 25.2992 18.1198 25.1282V28.8889C18.4617 28.8889 18.6326 29.0598 18.9745 29.0598V24.6154C19.8292 21.8803 14.8719 20.6838 14.8719 20.6838Z" fill="white"/>
<path d="M72.8205 25.641C73.6752 24.4444 74.7008 24.2735 75.8974 24.7863L76.9231 25.2991C77.6068 25.641 77.9487 25.9829 78.1196 26.6667C78.2906 27.1795 78.1196 27.6923 77.7778 28.3761C76.2393 30.5983 74.188 32.4786 71.7949 33.8461C69.4017 35.2137 67.0085 35.7265 64.2735 35.7265C60 35.7265 56.2393 34.188 53.1624 31.1111C50.0855 28.0342 48.547 24.2735 48.547 19.8291C48.547 15.3846 50.0855 11.7949 53.1624 8.71793C56.2393 5.64101 60.1709 4.10254 64.7863 4.10254C68.547 4.10254 71.9658 5.12818 75.0427 6.83759C75.7265 7.17947 75.8974 7.86323 75.8974 8.54699V10.4273C75.8974 12.1367 75.0427 12.6496 73.5043 11.6239C70.7692 10.0855 67.8632 9.40169 64.9573 9.40169C61.8803 9.40169 59.1453 10.4273 57.2649 12.4786C55.2137 14.5299 54.188 16.9231 54.188 20C54.188 22.906 55.2137 25.4701 57.2649 27.5214C59.3162 29.5726 61.7094 30.5983 64.4444 30.5983C67.6923 30.2564 70.4273 28.7179 72.8205 25.641Z" fill="#F17431"/>
<path d="M96.0685 35.2137C95.7266 35.2137 95.3848 35.0427 95.0429 34.8718C94.8719 34.7008 94.701 34.359 94.701 33.8461V29.4017H85.2993V33.8461C85.2993 34.188 85.1284 34.5299 84.9574 34.8718C84.7865 35.0427 84.4446 35.2137 83.9318 35.2137H83.248C82.9061 35.2137 82.5643 35.0427 82.2224 34.8718C82.0514 34.7008 81.8805 34.359 81.8805 33.8461V17.7778C81.8805 17.4359 82.0514 17.094 82.2224 16.7521C82.3933 16.5812 82.7352 16.4102 83.248 16.4102H83.9318C84.2737 16.4102 84.6155 16.5812 84.9574 16.7521C85.1284 16.9231 85.2993 17.2649 85.2993 17.7778V26.1538H94.701V17.7778C94.701 17.4359 94.8719 17.094 95.0429 16.7521C95.2138 16.5812 95.5557 16.4102 96.0685 16.4102H96.7523C97.0942 16.4102 97.4361 16.5812 97.7779 16.7521C97.9489 16.9231 98.1198 17.2649 98.1198 17.7778V33.8461C98.1198 34.188 97.9489 34.5299 97.7779 34.8718C97.607 35.0427 97.2651 35.2137 96.7523 35.2137H96.0685Z" fill="#F17431"/>
<path d="M104.102 32.6496C102.222 30.7692 101.367 28.547 101.367 25.812C101.367 23.0769 102.222 20.8547 104.102 18.9744C105.983 17.094 108.205 16.2393 110.94 16.2393C113.675 16.2393 115.897 17.094 117.778 18.9744C119.658 20.8547 120.513 23.0769 120.513 25.812C120.513 28.547 119.658 30.7692 117.778 32.6496C115.897 34.5299 113.675 35.3846 110.94 35.3846C108.205 35.3846 105.983 34.5299 104.102 32.6496ZM106.496 21.1966C105.299 22.3932 104.615 23.9316 104.615 25.641C104.615 27.3504 105.299 28.8889 106.496 30.0855C107.692 31.2821 109.231 31.9658 110.94 31.9658C112.649 31.9658 114.188 31.2821 115.385 30.0855C116.581 28.8889 117.265 27.3504 117.265 25.641C117.265 23.9316 116.581 22.3932 115.385 21.1966C114.188 20 112.649 19.3162 110.94 19.3162C109.231 19.4872 107.692 20 106.496 21.1966Z" fill="#F17431"/>
<path d="M128.547 18.1196C128.376 17.6068 128.376 17.2649 128.547 16.9231C128.718 16.5812 129.06 16.4102 129.573 16.4102H130.598C131.111 16.4102 131.624 16.7521 131.795 17.2649L134.188 22.5641L136.752 17.2649C136.923 16.7521 137.436 16.4102 137.949 16.4102H138.974C139.487 16.4102 139.829 16.5812 140 16.9231C140.171 17.2649 140.171 17.6068 140 18.1196L135.726 26.3248L137.265 29.7436L143.077 17.2649C143.248 16.7521 143.761 16.4102 144.273 16.4102H145.299C145.812 16.4102 146.154 16.5812 146.325 16.9231C146.496 17.2649 146.496 17.6068 146.325 18.1196L138.632 34.359C138.291 35.0427 137.949 35.5555 137.436 35.5555C136.923 35.5555 136.581 35.2137 136.239 34.359L134.017 29.9145L131.966 34.188C131.624 34.8718 131.282 35.3846 130.769 35.3846C130.256 35.3846 129.914 35.0427 129.573 34.188L121.88 18.1196C121.709 17.6068 121.709 17.2649 121.88 16.9231C122.051 16.5812 122.393 16.4102 122.906 16.4102H123.932C124.444 16.4102 124.957 16.7521 125.128 17.2649L130.769 29.7436L132.308 26.3248L128.547 18.1196Z" fill="#F17431"/>
<path d="M149.743 35.2137C149.402 35.2137 149.06 35.0427 148.718 34.8718C148.547 34.7009 148.376 34.359 148.376 33.8462V17.6068C148.376 17.265 148.547 16.9231 148.718 16.7521C148.889 16.5812 149.231 16.4103 149.573 16.4103C150.598 16.2393 151.453 16.2393 152.137 16.2393C154.872 16.2393 156.752 16.9231 158.12 18.1197C159.487 19.4872 160 21.0256 160 23.0769C160 24.6154 159.658 25.812 158.974 26.8376C158.291 27.8632 157.265 28.7179 156.068 29.2308L159.829 33.3333C160.342 33.8462 160.513 34.188 160.342 34.5299C160.171 34.8718 159.829 35.0427 159.145 35.0427H157.607C157.265 35.0427 156.923 34.8718 156.581 34.5299L152.649 30.0855H152.137H151.795V33.8462C151.795 34.188 151.624 34.5299 151.453 34.8718C151.111 35.0427 150.94 35.2137 150.427 35.2137H149.743ZM152.479 19.4872C152.479 19.4872 152.308 19.4872 152.137 19.4872C151.966 19.4872 151.795 19.4872 151.795 19.4872V26.8376C151.966 26.8376 152.308 26.8376 152.649 26.8376C155.385 26.8376 156.752 25.641 156.752 23.0769C156.752 20.6838 155.214 19.4872 152.479 19.4872Z" fill="#F17431"/>
<path d="M165.983 34.359C165.812 34.8718 165.299 35.2137 164.786 35.2137H163.932C163.419 35.2137 163.077 35.0427 162.906 34.7009C162.735 34.359 162.735 34.0171 162.906 33.5043L170.427 17.4359C170.769 16.5812 171.111 16.2393 171.624 16.2393C172.137 16.2393 172.479 16.5812 172.82 17.4359L180.171 33.5043C180.342 34.0171 180.342 34.359 180.171 34.7009C180 35.0427 179.658 35.2137 179.145 35.2137H178.12C177.607 35.2137 177.094 34.8718 176.923 34.359L175.214 30.5983H167.521L165.983 34.359ZM171.453 22.0513L169.06 27.3504H174.017L171.453 22.0513Z" fill="#F17431"/>
<path d="M191.624 17.7778C191.795 17.9487 191.966 18.2906 191.966 18.6325V19.829C191.966 20.8547 191.624 21.0256 190.769 20.3419C189.744 19.6581 188.718 19.1453 187.863 19.1453C187.351 19.1453 186.838 19.3162 186.496 19.4872C186.154 19.829 185.983 20.1709 185.983 20.5128C185.983 21.0256 186.154 21.3675 186.496 21.5385C186.838 21.8803 187.351 22.0513 188.205 22.3932C188.889 22.5641 189.402 22.906 189.573 22.906C189.915 23.0769 190.257 23.2479 190.94 23.5897C191.453 23.9316 191.966 24.1026 192.137 24.4444C192.479 24.7863 192.65 25.1282 192.992 25.4701C193.333 25.812 193.504 26.3248 193.675 26.8376C193.846 27.3504 193.846 28.0342 193.846 28.547C193.846 30.5983 193.163 32.1367 191.966 33.1624C190.769 34.188 189.231 34.8718 187.522 34.8718C186.154 34.8718 184.957 34.5299 183.932 33.6752C182.906 32.9914 182.051 31.9658 181.539 30.5983C181.368 30.2564 181.368 29.9145 181.539 29.7436C181.71 29.4017 181.88 29.2308 182.222 29.0598L182.906 28.7179C183.761 28.3761 184.445 28.547 184.957 29.5726C185.641 30.9402 186.496 31.453 187.692 31.453C188.376 31.453 189.06 31.1111 189.573 30.5983C190.086 30.0855 190.427 29.4017 190.427 28.3761C190.427 27.5214 190.257 26.8376 189.744 26.4957C189.231 26.1538 188.547 25.812 187.351 25.2991C186.838 25.1282 186.496 24.9573 186.154 24.9573C185.812 24.7863 185.47 24.6154 184.957 24.2735C184.445 23.9316 183.932 23.5897 183.761 23.2479C183.419 22.906 183.248 22.3932 182.906 21.8803C182.735 21.3675 182.564 20.6838 182.564 20C182.564 18.6325 183.077 17.4359 183.932 16.5812C184.957 15.7265 185.983 15.2137 187.351 15.2137C189.06 16.2393 190.427 16.7521 191.624 17.7778Z" fill="#F17431"/>
<path d="M193.846 17.7778C193.846 17.4359 194.017 17.094 194.188 16.7521C194.359 16.5812 194.701 16.4102 195.214 16.4102H207.179C207.521 16.4102 207.863 16.5812 208.205 16.7521C208.376 16.9231 208.547 17.2649 208.547 17.7778V18.2906C208.547 18.6325 208.376 18.9743 208.205 19.3162C208.034 19.4872 207.692 19.6581 207.179 19.6581H202.906V33.8461C202.906 34.188 202.735 34.5299 202.564 34.8718C202.393 35.0427 202.051 35.2137 201.538 35.2137H200.855C200.513 35.2137 200.171 35.0427 199.829 34.8718C199.658 34.7008 199.487 34.359 199.487 33.8461V19.6581H195.214C194.872 19.6581 194.53 19.4872 194.188 19.3162C194.017 19.1453 193.846 18.8034 193.846 18.2906V17.7778Z" fill="#F17431"/>
<path d="M225.128 35.2137C224.786 35.2137 224.444 35.0427 224.103 34.8718C223.932 34.7008 223.761 34.359 223.761 33.8461V29.4017H214.359V33.8461C214.359 34.188 214.188 34.5299 214.017 34.8718C213.846 35.0427 213.504 35.2137 212.991 35.2137H212.308C211.966 35.2137 211.624 35.0427 211.282 34.8718C211.111 34.7008 210.94 34.359 210.94 33.8461V17.7778C210.94 17.4359 211.111 17.094 211.282 16.7521C211.453 16.5812 211.795 16.4102 212.308 16.4102H212.991C213.333 16.4102 213.675 16.5812 214.017 16.7521C214.188 16.9231 214.359 17.2649 214.359 17.7778V26.1538H223.761V17.7778C223.761 17.4359 223.932 17.094 224.103 16.7521C224.274 16.5812 224.615 16.4102 225.128 16.4102H225.812C226.154 16.4102 226.496 16.5812 226.838 16.7521C227.009 16.9231 227.18 17.2649 227.18 17.7778V33.8461C227.18 34.188 227.009 34.5299 226.838 34.8718C226.667 35.0427 226.325 35.2137 225.812 35.2137H225.128Z" fill="#F17431"/>
<path d="M233.333 34.359C233.162 34.8718 232.65 35.2137 232.137 35.2137H231.282C230.769 35.2137 230.427 35.0427 230.257 34.7009C230.086 34.359 230.086 34.0171 230.257 33.5043L237.778 17.4359C238.12 16.5812 238.462 16.2393 238.974 16.2393C239.487 16.2393 239.829 16.5812 240.171 17.4359L247.692 33.5043C247.863 34.0171 247.863 34.359 247.692 34.7009C247.521 35.0427 247.18 35.2137 246.667 35.2137H245.641C245.128 35.2137 244.615 34.8718 244.445 34.359L242.735 30.5983H234.872L233.333 34.359ZM238.804 22.0513L236.41 27.3504H241.368L238.804 22.0513Z" fill="#F17431"/>
<path d="M82.5643 14.0171C82.3934 14.0171 82.3934 14.0171 82.2225 13.8461C82.2225 13.6752 82.0515 13.6752 82.0515 13.5043V7.69232C82.0515 7.52138 82.0515 7.52138 82.2225 7.35044C82.2225 7.1795 82.3934 7.1795 82.5643 7.1795C83.0772 7.1795 83.419 7.1795 83.9319 7.1795C84.6156 7.1795 85.2994 7.35044 85.8122 7.52138C86.325 7.69232 86.6669 8.0342 87.0088 8.20514C87.3507 8.54702 87.5216 8.8889 87.6925 9.23078C87.8635 9.57266 87.8635 10.0855 87.8635 10.5983C87.8635 11.1111 87.8635 11.453 87.6925 11.9658C87.5216 12.3077 87.3507 12.6496 87.0088 12.9914C86.6669 13.3333 86.325 13.5043 85.8122 13.6752C85.2994 13.8461 84.6156 14.0171 83.9319 14.0171C83.419 14.0171 82.9062 14.0171 82.5643 14.0171ZM84.1028 8.37608C83.9319 8.37608 83.7609 8.37608 83.419 8.37608V12.8205C83.59 12.8205 83.7609 12.8205 84.1028 12.8205C84.9575 12.8205 85.6413 12.6496 86.1541 12.1367C86.6669 11.6239 86.8378 11.1111 86.8378 10.4273C86.8378 9.7436 86.6669 9.23078 86.1541 8.71796C85.6413 8.54702 84.9575 8.37608 84.1028 8.37608Z" fill="#33B050"/>
<path d="M91.9661 14.0171C91.7951 14.0171 91.7951 14.0171 91.6242 13.8461C91.4533 13.6752 91.4532 13.6752 91.4532 13.5043V7.69232C91.4532 7.52138 91.4533 7.52138 91.6242 7.35044C91.7951 7.1795 91.7951 7.1795 91.9661 7.1795H95.2139C95.3849 7.1795 95.3849 7.1795 95.5558 7.35044C95.7268 7.52138 95.7268 7.52138 95.7268 7.69232V7.86326C95.7268 8.0342 95.7268 8.20514 95.5558 8.20514C95.3849 8.37608 95.3849 8.37608 95.2139 8.37608H92.6498V10.7692H95.2139C95.3849 10.7692 95.3849 10.7692 95.5558 10.9402C95.7268 11.1111 95.7268 11.1111 95.7268 11.282C95.7268 11.453 95.7268 11.453 95.5558 11.6239C95.3849 11.7949 95.3849 11.7949 95.2139 11.7949H92.6498V12.8205H95.2139C95.3849 12.8205 95.3849 12.8205 95.5558 12.9914C95.7268 13.1624 95.7268 13.1624 95.7268 13.3333V13.5043C95.7268 13.6752 95.7268 13.6752 95.5558 13.8461C95.3849 14.0171 95.3849 14.0171 95.2139 14.0171H91.9661Z" fill="#33B050"/>
<path d="M102.564 7.69233C102.564 7.69233 102.735 7.86327 102.735 8.03421V8.54703C102.735 8.88891 102.564 9.05985 102.222 8.71797C101.88 8.37609 101.538 8.37609 101.197 8.37609C101.026 8.37609 100.855 8.37609 100.684 8.54703C100.513 8.71797 100.513 8.71797 100.513 8.88891C100.513 9.05985 100.513 9.23079 100.684 9.23079C100.855 9.23079 101.026 9.40173 101.368 9.57267C101.538 9.74361 101.709 9.74361 101.88 9.74361C102.051 9.74361 102.222 9.91455 102.393 9.91455C102.564 10.0855 102.735 10.0855 102.906 10.2564C103.077 10.4274 103.077 10.4274 103.248 10.5983C103.419 10.7692 103.419 10.9402 103.419 11.1111C103.419 11.2821 103.419 11.453 103.419 11.7949C103.419 12.4786 103.248 12.9915 102.735 13.5043C102.222 14.0171 101.709 14.188 101.197 14.188C100.684 14.188 100.342 14.0171 99.8291 13.8462C99.4872 13.5043 99.1453 13.1624 98.9744 12.8205C98.9744 12.6496 98.9744 12.6496 98.9744 12.4786C98.9744 12.3077 99.1453 12.3077 99.1453 12.3077L99.3162 12.1368C99.6581 11.9658 99.8291 12.1368 100 12.4786C100.171 12.9915 100.513 13.1624 101.026 13.1624C101.368 13.1624 101.538 12.9915 101.709 12.8205C101.88 12.6496 102.051 12.3077 102.051 11.9658C102.051 11.6239 102.051 11.453 101.88 11.2821C101.709 11.1111 101.368 10.9402 101.026 10.9402C100.855 10.9402 100.684 10.7692 100.684 10.7692C100.513 10.7692 100.513 10.5983 100.171 10.5983C100 10.4274 99.8291 10.4274 99.6581 10.2564C99.4872 10.0855 99.4872 9.91456 99.3162 9.74361C99.1453 9.57267 99.1453 9.40173 99.1453 9.05985C99.1453 8.54703 99.3162 8.20515 99.6581 7.86327C100 7.52139 100.342 7.35045 100.855 7.35045C101.538 7.17951 102.051 7.35045 102.564 7.69233Z" fill="#33B050"/>
<path d="M107.351 14.0171C107.18 14.0171 107.18 14.0171 107.009 13.8461C106.838 13.6752 106.838 13.6752 106.838 13.5043V7.69232C106.838 7.52138 106.838 7.52138 107.009 7.35044C107.18 7.1795 107.18 7.1795 107.351 7.1795H107.693C107.864 7.1795 108.034 7.1795 108.034 7.35044C108.205 7.52138 108.205 7.52138 108.205 7.69232V13.5043C108.205 13.6752 108.205 13.6752 108.034 13.8461C107.864 14.0171 107.864 14.0171 107.693 14.0171H107.351Z" fill="#33B050"/>
</g>
<defs>
<clipPath id="clip0_717_664">
<rect width="248" height="40" fill="white"/>
</clipPath>
</defs>
</svg>
